<svg id="e20dTMZxlAn1" xmlns="http://www.w3.org/2000/svg" xmlns:xlink="http://www.w3.org/1999/xlink" viewBox="0 0 811 533" shape-rendering="geometricPrecision" text-rendering="geometricPrecision"><path d="M0,0C267.63,0,535.26,0,811,0c0,175.89,0,351.78,0,533-267.63,0-535.26,0-811,0C0,357.11,0,181.22,0,0Z" fill="#31304d"/><path d="M0,0c.712711-.008324,1.425421-.016647,2.159729-.025223c2.351924-.02406,4.70357-.032867,7.055603-.039474c1.639008-.008969,3.278016-.018091,4.917023-.027359c3.434743-.016482,6.869389-.024189,10.304168-.027085c4.394019-.005383,8.787118-.043066,13.180876-.088744c3.38529-.029791,6.770358-.03698,10.155768-.037982c1.619496-.004198,3.238993-.016615,4.85836-.037517c2.269339-.026961,4.536554-.022078,6.805973-.009585c1.289214-.00507,2.578427-.010141,3.906708-.015365c4.608765.808562,6.217184,2.342893,9.503937,5.61473c1.280445,2.56089,1.127034,4.377107,1.129394,7.244141.003152,1.094535.006304,2.18907.009552,3.316773-.003036,1.779691-.003036,1.779691-.006134,3.595336.000957,1.21321.001913,2.426419.002899,3.676392.000682,2.56897-.00117,5.137942-.00534,7.706909-.005349,3.943887-.000054,7.88766.006347,11.831543-.000661,2.490886-.001942,4.981772-.003906,7.472656.002024,1.186462.004048,2.372923.006134,3.595337-.004728,1.641803-.004728,1.641803-.009552,3.316773-.000796.966595-.001591,1.933191-.002411,2.929077-.126983,2.315063-.126983,2.315063-1.126983,4.315063-3.564371.317973-5.403725.421016-8.378907-1.679687-.720586-.724453-1.441172-1.448906-2.183593-2.195313-3.852081-3.831481-6.825106-5.917624-12.352158-6.356369-1.072223.00779-2.144446.01558-3.249161.023606-1.221543.002724-2.443085.005448-3.701645.008255-1.311545.010408-2.623091.020816-3.97438.03154-1.368538-.00094-2.737076-.003762-4.105606-.008377-5.795982-.018776-11.591453-.025273-17.387314.021804-3.552944.02766-7.104461.021219-10.657381-.007013-2.001892-.006303-4.00379.024416-6.005446.055796-8.670042-.092291-8.670042-.092291-12.175918-2.19931-3.513185-3.601183-4.527681-7.180232-4.610871-12.127808.01842-.776252.036839-1.552505.055817-2.35228-.000997-.819315-.001994-1.63863-.003021-2.482773.004656-1.722069.023964-3.444154.05722-5.165908.047307-2.625513.041095-5.24697.027832-7.872803.011153-1.680363.025372-3.360708.042969-5.041016-.001823-.778276-.003646-1.556553-.005524-2.358413.13352-5.166941,1.134859-8.238145,4.607087-12.293931C-7.572634,-0.11116,-4.23863,0.035024,0,0Z" transform="translate(174.152 244.694)" fill="#31304d"/><path d="M0,0c.712711-.008324,1.425421-.016647,2.159729-.025223c2.351924-.02406,4.70357-.032867,7.055603-.039474c1.639008-.008969,3.278016-.018091,4.917023-.027359c3.434743-.016482,6.869389-.024189,10.304168-.027085c4.394019-.005383,8.787118-.043066,13.180876-.088744c3.38529-.029791,6.770358-.03698,10.155768-.037982c1.619496-.004198,3.238993-.016615,4.85836-.037517c2.269339-.026961,4.536554-.022078,6.805973-.009585c1.289214-.00507,2.578427-.010141,3.906708-.015365c4.608765.808562,6.217184,2.342893,9.503937,5.61473c1.280445,2.56089,1.127034,4.377107,1.129394,7.244141.003152,1.094535.006304,2.18907.009552,3.316773-.003036,1.779691-.003036,1.779691-.006134,3.595336.000957,1.21321.001913,2.426419.002899,3.676392.000682,2.56897-.00117,5.137942-.00534,7.706909-.005349,3.943887-.000054,7.88766.006347,11.831543-.000661,2.490886-.001942,4.981772-.003906,7.472656.002024,1.186462.004048,2.372923.006134,3.595337-.004728,1.641803-.004728,1.641803-.009552,3.316773-.000796.966595-.001591,1.933191-.002411,2.929077-.126983,2.315063-.126983,2.315063-1.126983,4.315063-3.564371.317973-5.403725.421016-8.378907-1.679687-.720586-.724453-1.441172-1.448906-2.183593-2.195313-3.852081-3.831481-6.825106-5.917624-12.352158-6.356369-1.072223.00779-2.144446.01558-3.249161.023606-1.221543.002724-2.443085.005448-3.701645.008255-1.311545.010408-2.623091.020816-3.97438.03154-1.368538-.00094-2.737076-.003762-4.105606-.008377-5.795982-.018776-11.591453-.025273-17.387314.021804-3.552944.02766-7.104461.021219-10.657381-.007013-2.001892-.006303-4.00379.024416-6.005446.055796-8.670042-.092291-8.670042-.092291-12.175918-2.19931-3.513185-3.601183-4.527681-7.180232-4.610871-12.127808.01842-.776252.036839-1.552505.055817-2.35228-.000997-.819315-.001994-1.63863-.003021-2.482773.004656-1.722069.023964-3.444154.05722-5.165908.047307-2.625513.041095-5.24697.027832-7.872803.011153-1.680363.025372-3.360708.042969-5.041016-.001823-.778276-.003646-1.556553-.005524-2.358413.13352-5.166941,1.134859-8.238145,4.607087-12.293931C-7.572634,-0.11116,-4.23863,0.035024,0,0ZM-5.151855,9.306396c0,11.55,0,23.1,0,35c4.299023.025782,8.598046.051563,13.027343.078125c3.448476.031722,6.896862.067374,10.345269.105668c3.628825.039226,7.25741.071678,10.886421.087204c3.50164.01525,7.002623.049841,10.503969.097313c1.972203.021849,3.944591.024157,5.916914.026039c7.313732.118153,12.942705.899345,19.320084,4.605651.024647-5.535885.042834-11.071739.054931-16.607666.005041-1.884771.011874-3.769538.020508-5.654296.012077-2.703054.017791-5.406056.022217-8.109131.005161-.847916.010322-1.695832.01564-2.569443.000195-2.020174-.051234-4.040243-.113296-6.059464-1.08772-1.312859-1.08772-1.312859-3.739762-1.120254-1.223557.002221-2.447114.004441-3.707748.006729-.673143-.000146-1.346285-.000292-2.039826-.000442-2.234722.000699-4.469363.008491-6.704071.016311-1.545567.001864-3.091135.003288-4.636703.004288-4.075461.003825-8.150887.013655-12.226334.024704-4.885834.012009-9.771679.016616-14.657524.022453-7.429369.00971-14.85866.028867-22.288032.046211Z" transform="translate(174.152 244.694)" fill="#fbfbfb"/><path d="M0,0C30,0,30,0,38,4c5.135612,5.354148,6.365386,9.152506,6.28125,16.367188C43.567828,27.045607,39.875182,31.666505,35,36c.721875.721875,1.44375,1.44375,2.1875,2.1875c3.428812,4.061973,4.928278,8.839658,6.699219,13.789063C44.791451,54.433624,45.769001,56.695389,47,59c-4.513468,2.64203-7.763889,3.678755-13,3-4.251947-3.205441-5.482936-7.268314-7.125-12.125C25.204551,44.503162,25.204551,44.503162,22,40c-2.64-.33-5.28-.66-8-1c0,7.59,0,15.18,0,23-4.62,0-9.24,0-14,0C0,41.54,0,21.08,0,0Z" transform="translate(277 229)" fill="#fafafa"/><path d="M0,0C5.259502,2.730896,8.867628,6.173142,11.085938,11.710938c2.360049,8.492144,2.002936,18.170047-1.742188,26.195312C6.509529,42.322362,2.968604,45.343799,-2,47c-1.49774.092252-2.99943.130002-4.5.125-.773437.002578-1.546875.005156-2.34375.007813C-11,47,-11,47,-14,46c.046406,1.024805.092813,2.049609.140625,3.105469.037535,1.360648.073933,2.721327.109375,4.082031.050273,1.010303.050273,1.010303.101563,2.041016.065519,3.357871-.322796,5.709667-1.742188,8.759765C-18,66,-18,66,-28,66c0-21.45,0-42.9,0-65c7.875,0,7.875,0,11,2c0,.66,0,1.32,0,2c.556875-.360937,1.11375-.721875,1.6875-1.09375C-9.88184,0.603822,-6.360703,-0.938464,0,0Z" transform="translate(404 244)" fill="#f9f9f9"/><path d="M0,0C8.222222,0,8.222222,0,12,2c1.244657,2.489313,1.151481,4.211641,1.189453,6.99707.016718,1.041583.033435,2.083166.050659,3.156311.013576,1.130166.027151,2.260331.041138,3.424744.018409,1.15933.036819,2.318661.055786,3.513123.05889,3.719531.111616,7.439109.162964,11.158752.067756,4.880303.141511,9.760464.21875,14.640625.013575,1.122068.027151,2.244137.041138,3.400208.066515,4.194368.150174,8.174891.847534,12.317565C15,63,15,63,13.5625,65.375C13.046875,65.91125,12.53125,66.4475,12,67c-6.75-.75-6.75-.75-9-3-2.227594.297013-3.819499.895142-5.761719,2.023438C-7.241894,67.978139,-12.221235,67.511308,-17,67c-4.944787-2.472393-7.135839-6.948039-9-12-.541283-3.354317-.561664-6.608472-.5-10-.015469-.850781-.030937-1.701562-.046875-2.578125.040129-6.541099,1.423861-12.131217,6.029541-16.984131c3.850743-3.352068,6.928074-4.58286,11.954834-4.625244.761836-.01418,1.523672-.028359,2.308594-.042969C-4,21,-4,21,0,23C0,15.41,0,7.82,0,0Z" transform="translate(475 224)" fill="#fcfcfc"/><path d="M0,0C4.090604,2.547398,7.018539,6.056609,9.164063,10.347656c.494703,4.200927.650228,7.788211-1.375,11.5625-4.067899,2.227659-8.086684,1.749293-12.625,1.4375-.056075-.904922-.056075-.904922-.113282-1.828125-.284103-3.4538-.587307-6.467377-1.949218-9.671875-3.051556-2.362495-6.124029-2.805375-9.9375-2.5-3.332962,1.811393-4.638794,3.142771-6.109375,6.632813-1.05277,3.980206-1.274742,7.580635-1.265625,11.679687.002416,1.124506.002416,1.124506.004882,2.271729.123872,5.600348.728778,10.909051,4.370118,15.415771c3.852348,2.400853,7.575876,2.750716,12,2c3.791537-1.433691,7.397555-3.145801,11-5c1.035903,1.068932,2.053339,2.155785,3.0625,3.25.568476.603282,1.136953,1.206563,1.722656,1.828125c1.214844,1.921875,1.214844,1.921875,1.285156,3.925782-1.675629,3.124987-4.155521,4.067597-7.257812,5.683593-1.12793.601992-2.25586,1.203985-3.417969,1.824219-7.807952,3.423279-16.275919,3.567199-24.226563.570313-7.278993-3.632939-10.674578-9.786643-13.285156-17.28125-2.494928-10.741437-2.432706-23.027076,3.117188-32.800782C-27.355641,-3.297646,-13.930768,-6.330105,0,0Z" transform="translate(536.836 230.652)" fill="#eab308"/><path d="M0,0C8.222222,0,8.222222,0,12,2c1.226376,2.452751,1.114153,4.050578,1.097656,6.789063-.003222.941015-.006445,1.882031-.009765,2.851562-.008379.984844-.016758,1.969688-.025391,2.984375-.004512.992578-.009023,1.985156-.013672,3.007813C13.037021,20.088602,13.020554,22.544271,13,25c1.059609-.650977,2.119219-1.301953,3.210938-1.972656C20.59311,20.529704,24.035771,20.252094,29,21c4.011588,1.515489,6.065945,3.852693,8.141846,7.590088C39.074087,34.016307,38.645355,39.992345,38.6875,45.6875c.042087,2.608132.087511,5.216212.136719,7.824219.016798,1.724161.016798,1.724161.033935,3.483154.025757,2.916296.025757,2.916296.777832,5.285645.180187.851143.180187.851143.364014,1.719482-2.527394,2.527394-3.928378,2.492865-7.4375,2.875-.968086.121172-1.936172.242344-2.933594.367188C27,67,27,67,25.367676,65.405762c-1.79729-3.161459-1.799845-5.512667-1.879395-9.140137-.035449-1.295508-.070898-2.591016-.107422-3.925781-.023098-1.363276-.04588-2.726558-.068359-4.089844-.033186-1.378939-.067677-2.757846-.103516-4.136719-.082507-3.371012,0-8.069812,0-8.069812s-6.148984-.723469-9.208984-.043469c-.33,10.23-.66,20.46-1,31-4.29,0-8.58,0-13,0C0,44.89,0,22.78,0,0Z" transform="translate(554 224)" fill="#eab308"/><path d="M0,0c.676758-.013535,1.353516-.02707,2.050781-.041016c4.645534.04099,7.819327.986807,11.761719,3.416016c4.044819,4.482097,5.5,10.312156,5.5,10.312156.056074,1.790507-.162676,4.439289-.105469,6.265969.052207,1.879453.052207,1.879453.105469,3.796875.068933,2.46626.141687,4.932418.21875,7.398438.030293,1.097475.060586,2.194951.091797,3.325683.080409,2.819054.080409,2.819054.828125,5.118164.178857.882444.178857.882444.361328,1.782715-1.9375,2.75-1.9375,2.75-4,5-5.619677-.784141-5.619677-.784141-8.3125-2.3125-3.291707-.842064-3.97993-.246725-6.9375,1.25-4.844483,2.381871-8.577974,2.639215-13.75,1.0625-3.580759-2.209405-5.416937-4.148565-7-8-.725452-4.555003-1.055477-9.067243,1.203125-13.203125c2.558633-3.075528,4.998522-5.405464,8.796875-6.796875c3.453125-.195312,3.453125-.195312,7.25-.125c1.263281.018047,2.526563.036094,3.828125.054688.964219.023203,1.928438.046406,2.921875.070312-1.08785-3.249831-1.08785-3.249831-3-6-5.721204-.425648-11.344293.177352-17,1-2.093507-3.401949-2.179422-6.052724-2-10C-11.418257,0.902467,-6.262877,0.051807,0,0Z" transform="translate(619.188 244.625)" fill="#eab308"/><path d="M0,0c.676758-.013535,1.353516-.02707,2.050781-.041016C6.696732,-0.000022,9.867738,0.950132,13.8125,3.375c4.169221,4.507266,5.106871,7.806591,5.28125,13.839844.056074,1.717998.056074,1.717998.113281,3.470703.052207,1.795342.052207,1.795342.105469,3.626953.068948,2.3634.141705,4.726693.21875,7.089844.030293,1.049216.060586,2.098432.091797,3.179443.085295,2.726242.085295,2.726242.828125,4.994629.178857.890299.178857.890299.361328,1.798584-1.9375,2.75-1.9375,2.75-4,5-5.619677-.784141-5.619677-.784141-8.3125-2.3125-3.291707-.842064-3.97993-.246725-6.9375,1.25-4.844483,2.381871-8.577974,2.639215-13.75,1.0625-3.580759-2.209405-5.416937-4.148565-7-8-.725452-4.555003-1.055477-9.067243,1.203125-13.203125c2.558633-3.075528,4.998522-5.405464,8.796875-6.796875c3.453125-.195312,3.453125-.195312,7.25-.125c1.263281.018047,2.526563.036094,3.828125.054688.964219.023203,1.928438.046406,2.921875.070312-1.08785-3.249831-1.08785-3.249831-3-6-5.721204-.425648-11.344293.177352-17,1-2.093507-3.401949-2.179422-6.052724-2-10C-11.418257,0.902467,-6.262877,0.051807,0,0Z" transform="translate(347.188 244.625)" fill="#f9f9f9"/><path d="M0,0C0,4.62,0,9.24,0,14c3.63,0,7.26,0,11,0c0,2.97,0,5.94,0,9-3.63,0-7.26,0-11,0c.33,8.25.66,16.5,1,25c2.64,0,5.28,0,8,0c1,1,1,1,1.097656,3.066406-.011601.823711-.023203,1.647422-.035156,2.496094-.009023.826289-.018047,1.652578-.027344,2.503906C10.023555,56.704492,10.011953,57.342578,10,58c-6.524701,1.410746-14.060367,2.619798-20.0625-.6875-3.56391-4.253699-4.186632-8.025619-4.132812-13.488281.006445-1.156934.01289-2.313867.019531-3.50586.016758-1.198183.033515-2.396367.050781-3.630859.009023-1.21752.097571-2.104671-.125-4.687711-.165122-1.91632.208743-5.000439.25-7.999789-2.31,0-4.62,0-7,0c0-3.63,0-7.26,0-11c2.31,0,4.62,0,7,0-.12375-1.825312-.12375-1.825312-.25-3.6875.032552-3.054492.311901-4.447556,1.625-7.3125C-8.523783,-1.124737,-5.062948,-0.333089,0,0Z" transform="translate(663 232)" fill="#eab308"/><path d="M0,0C2.318027,1.896568,3.910618,3.50071,4.303009,6.566818c-.006662,1.055901-.006662,1.055901-.013458,2.133133-.000151.800604-.000302,1.601207-.000458,2.426071-.010323.859468-.020645,1.718935-.03128,2.604447-.00283.883597-.00566,1.767194-.008576,2.677566-.011196,2.82246-.036299,5.644602-.061737,8.466965-.010031,1.913407-.019156,3.826819-.027344,5.740234-.022052,4.690878-.056578,9.381518-.097656,14.072266-2.145766.026859-4.291626.046331-6.4375.0625-1.194961.011602-2.389922.023203-3.621094.035156C-8.9375,44.6875,-8.9375,44.6875,-9.9375,43.6875c-.159804-2.44609-.259294-4.867311-.316406-7.316406-.020781-.731055-.041562-1.462109-.062973-2.215317-.065571-2.343494-.124415-4.687102-.183121-7.030777-.043178-1.585299-.086792-3.170585-.130859-4.755859-.10728-3.893761-.208526-7.787639-.306641-11.681641-.639375-.12375-1.27875-.2475-1.9375-.375-.680625-.20625-1.36125-.4125-2.0625-.625-1.607256-3.214513-1.057482-6.436125-1-10C-10.559771,-1.824605,-5.168376,-2.309275,0,0Z" transform="translate(435.938 246.313)" fill="#f7f7f7"/><path d="M0,0c1.054493-.006304,2.108987-.012609,3.195435-.019104c1.71407.006073,1.71407.006073,3.462768.012268c1.753226-.00287,1.753226-.00287,3.54187-.005798c2.474815-.001363,4.949637.002341,7.424439.010681c3.799153.010698,7.597834.000108,11.396972-.012695c2.399741.001321,4.799481.003883,7.199219.007812c1.142714-.004048,2.285427-.008097,3.462769-.012268c1.58174.009456,1.58174.009456,3.195434.019104.931066.001591,1.862132.003182,2.821411.004822c2.239136.253967,2.239136.253967,4.239136,2.253967.357295,2.786896.489075,4.337624-1.208618,6.636887-2.369223,1.802809-3.805357,1.737521-6.765991,1.735428-1.011149.006228-2.022298.012457-3.064087.018875-1.090668-.00921-2.181336-.01842-3.305054-.027909-1.120638.000499-2.241277.000997-3.395874.001511-2.370501-.002342-11.001651-.364581-11.001651-.364581s-3.378071.315409-7.012631.322055c-2.300786-.005577-4.601568-.012687-6.902344-.021485-1.090668.000912-2.181335.001823-3.305054.002762-1.011148-.009532-2.022297-.019064-3.064086-.028885-.8903-.004607-1.780599-.009215-2.697876-.013962-2.276734-.260696-2.276734-.260696-5.276734-2.260696-.3125-3-.3125-3,0-6C-4.501331,-0.300427,-3.55201,0.00607,0,0Z" transform="translate(182.061 272.741)" fill="#eab308"/><path d="M0,0c1.054493-.006304,2.108987-.012609,3.195435-.019104c1.71407.006073,1.71407.006073,3.462768.012268c1.753226-.00287,1.753226-.00287,3.54187-.005798c2.474815-.001363,4.949637.002341,7.424439.010681c3.799153.010698,9.369183.100797,9.369183.100797s6.82727-.109609,9.227008-.10568c1.142714-.004048,2.285427-.008097,3.462769-.012268c1.58174.009456,1.58174.009456,3.195434.019104.931066.001591,1.862132.003182,2.821411.004822c2.239136.253967,2.239136.253967,4.239136,2.253967.25,2.5.25,2.5,0,5-2.559216,2.559216-3.508537,2.252719-7.060547,2.258789-1.58174.009457-1.58174.009457-3.195434.019104-1.142714-.004048-2.285428-.008097-3.462769-.012268-1.753226.00287-1.753226.00287-3.54187.005798-2.474815.001363-4.949637-.002341-7.424438-.010681-3.799154-.010697-7.597834-.000108-11.396973.012696-2.399741-.001322-4.799481-.003884-7.199219-.007813-1.71407.006073-1.71407.006073-3.462768.012268C2.140941,9.530378,1.086448,9.524073,0,9.517578c-.931066-.001591-1.862131-.003182-2.821411-.004822-2.239136-.253967-2.239136-.253967-4.239136-2.253967-.25-2.5-.25-2.5,0-5C-4.501331,-0.300427,-3.55201,0.00607,0,0Z" transform="translate(182.061 261.741)" fill="#eab308"/><path d="M0,0c5.75.875,5.75.875,8,2c.116087,3.270535.187207,6.540542.25,9.8125.050273,1.393154.050273,1.393154.101563,2.814453.01289.892676.025781,1.785352.039062,2.705078.020947.82218.041895,1.644361.063477,2.491455C8,22,8,22,6.135742,23.760498C3.451138,25.318538,2.04891,25.625417,-1,25c-3.193871-4.053759-3.432429-7.429446-3.4375-12.5-.019336-1.289062-.038672-2.578125-.058594-3.90625C-3.935942,4.535961,-2.815748,2.899384,0,0Z" transform="translate(467 255)" fill="#31304d"/><path d="M0,0C3.56802,5.500697,3.707122,10.654265,3,17c-.840971,2.910271-1.810255,5.810255-4,8-6.72-.72-6.72-.72-8-2-.278348-3.471333-.231762-6.956325-.25-10.4375-.030937-1.470498-.030937-1.470498-.0625-2.970703-.005156-.936504-.010312-1.873008-.015625-2.837891-.009346-.862947-.018691-1.725893-.02832-2.61499C-9.238818,3.433074,-9.121191,2.727231,-9,2c3.435205-2.290137,4.985331-2.17843,9-2Z" transform="matrix(.786854 0 0 1 399 256)" fill="#31304d"/><path d="M0,0C9.269231,0,9.269231,0,14,3c1.741787,3.483575,1.567122,7.19893,1,11-1.875,2.5625-1.875,2.5625-5,4-3.409447.30711-6.561787.183371-10,0C0,12.06,0,6.12,0,0Z" transform="matrix(1 0 0 0.608095 291 239)" fill="#31304d"/><path d="M0,0c.773438-.016758,1.546875-.033516,2.34375-.050781C5.051112,0.40535,5.910939,1.093811,7.5,3.3125c.574973,2.846678.281106,5.048384,0,8-3.271276,2.180851-4.273767,2.248879-8.0625,2.1875-1.316777-.009668-1.316777-.009668-2.660156-.019531C-5.5,13.3125,-5.5,13.3125,-7.5,12.3125c-.08091-1.624187-.13915-3.249517-.1875-4.875-.034805-.904922-.069609-1.809844-.105469-2.742187.09668-.786329.19336-1.572657.292969-2.382813C-4.402191,0.247294,-3.545952,0.01773,0,0Z" transform="translate(431.5 225.688)" fill="#f4f4f4"/><path d="M3,1c0,0,.692308-.307692,2,1c.125572,2.309934.175757,4.624185.1875,6.9375.01418,1.267148.028359,2.534297.042969,3.839844C5,16,5,16,3,18c-2.125-.375-2.125-.375-4-1-.026847-2.6459-.046764-5.291531-.0625-7.9375-.008379-.754746-.016758-1.509492-.025391-2.287109C-1.096524,4.850057,-1.052243,2.924644,-1,1c.33-.33,3.66.34,4,0Z" transform="translate(163 223)" fill="#eab308"/><path d="M0,0c1.059609.006768,1.059609.006768,2.140625.013672c1.744828.011789,3.489612.029725,5.234375.048828.625,1.875.625,1.875,1,4-2,2-2,2-5.1875,2.265625-1.887187-.007734-1.887187-.007734-3.8125-.015625-1.258125.005156-2.51625.010313-3.8125.015625C-7.625,6.0625,-7.625,6.0625,-9.625,4.0625c0-.99,0-1.98,0-3C-6.559668,-0.470166,-3.357457,-0.040265,0,0Z" transform="translate(147.625 246.938)" fill="#eab308"/><path d="M0,0c.292969,6.054688.292969,6.054688,0,8-3.644177,2.429452-5.712413,2.161796-10,2-1.316901-6.34507-1.316901-6.34507-.0625-8.9375C-6.744913,-0.64656,-3.695588,-0.18175,0,0Z" transform="translate(352 271)" fill="#31304d"/><path d="M0,0c.292969,6.054688.292969,6.054688,0,8-3.452458,2.301639-4.947387,2.344903-9,2-2-2-2-2-2.3125-4.4375C-11,3,-11,3,-10,1.1875C-6.76011,-0.736184,-3.717418,-0.182824,0,0Z" transform="translate(624 271)" fill="#31304d"/><path d="M0,0c4.681915.457381,6.631042,2.191104,9.8125,5.5625.790195.826289,1.580391,1.652578,2.394531,2.503906C12.798711,8.704492,13.390391,9.342578,14,10c-.66,1.32-1.32,2.64-2,4-3.919623-1.334047-6.429741-2.973537-9.375-5.875-.708984-.678047-1.417969-1.356094-2.148437-2.054687C-1,4,-1,4,-0.726562,1.742188C-0.486797,1.167266,-0.247031,0.592344,0,0Z" transform="translate(144 229)" fill="#f1f1f1"/></svg>
